<svg xmlns="http://www.w3.org/2000/svg" viewBox="0 0 210 175.1" enable-background="new 0 0 210 175.1"><path fill="#E35205" d="M167.8 66.1c-18.2 0-33.1 14.8-33.1 33.1 0 18.2 14.8 33 33.1 33 18.2 0 33.1-14.8 33.1-33 0-18.3-14.8-33.1-33.1-33.1"/><path fill="#424652" d="M207 57c-.4 0-.7-.3-.7-.7v-4.5l-1.9 3.1c-.3.5-1 .6-1.4 0l-1.9-3.1v4.5c0 .4-.3.7-.7.7-.4 0-.8-.3-.8-.7v-6.9c0-.4.3-.7.8-.7s.7.2.8.5l2.4 4 2.5-4c.2-.3.4-.5.8-.5.5 0 .8.3.8.7v6.9c0 .4-.3.7-.7.7m-11.2 0c-.4 0-.8-.3-.8-.7v-6.1h-1.9c-.4 0-.7-.3-.7-.7 0-.4.3-.7.7-.7h5.3c.4 0 .7.3.7.7 0 .4-.3.7-.7.7h-1.9v6.1c.1.4-.2.7-.7.7M167.8 141.3c-23.2 0-42.2-18.9-42.2-42.1 0-23.2 18.9-42.2 42.2-42.2C191 57 210 75.9 210 99.2c0 23.2-18.9 42.1-42.2 42.1m0-73.5c-17.3 0-31.3 14.1-31.3 31.3 0 17.3 14.1 31.3 31.3 31.3 17.3 0 31.3-14.1 31.3-31.3.1-17.2-14-31.3-31.3-31.3M112.1 132.8V5.8c0-3.2-2.6-5.8-5.8-5.8-3.2 0-5.8 2.6-5.8 5.8v126.9c0 3.2 2.6 5.9 5.8 5.9 3.2 0 5.8-2.6 5.8-5.8M84.3 99.1C84.3 75.9 65.4 57 42.2 57 18.9 57 0 75.9 0 99.1c0 23.3 18.9 42.1 42.2 42.1 12.4 0 23.6-5.4 31.3-14v5.7c0 17.3-14.1 31.3-31.3 31.3-3 0-5.4 2.4-5.4 5.4 0 3 2.4 5.4 5.4 5.4 23.2 0 42.2-18.9 42.2-42.2V99.1zm-42.1 31.4c-17.3 0-31.3-14.1-31.3-31.3 0-17.3 14.1-31.3 31.3-31.3 17.3 0 31.3 14.1 31.3 31.3 0 17.2-14.1 31.3-31.3 31.3"/></svg>